HIERARCHY
ROOT Hips
{
  OFFSET 0 0 0
  CHANNELS 6 Xposition Yposition Zposition Zrotation Yrotation Xrotation
  JOINT LeftThigh
  {
    OFFSET 8.509551 0 -5.988202
    CHANNELS 3 Zrotation Yrotation Xrotation
    JOINT LeftLeg
    {
      OFFSET 0 0 -42.862921
      CHANNELS 3 Zrotation Yrotation Xrotation
      JOINT LeftFoot
      {
        OFFSET 0 0 -39.825843
        CHANNELS 3 Zrotation Yrotation Xrotation
        End Site
        {
          OFFSET 0 -13.487303 -5.068483
        }
      }
    }
  }
  JOINT RightThigh
  {
    OFFSET -8.509551 0 -5.988202
    CHANNELS 3 Zrotation Yrotation Xrotation
    JOINT RightLeg
    {
      OFFSET 0 0 -42.862921
      CHANNELS 3 Zrotation Yrotation Xrotation
      JOINT RightFoot
      {
        OFFSET 0 0 -39.825843
        CHANNELS 3 Zrotation Yrotation Xrotation
        End Site
        {
          OFFSET 0 -13.487303 -5.068483
        }
      }
    }
  }
  JOINT SpineLow
  {
    OFFSET 0 0 4.775281
    CHANNELS 3 Zrotation Yrotation Xrotation
    JOINT SpineMid
    {
      OFFSET 0 0 13.052753
      CHANNELS 3 Zrotation Yrotation Xrotation
      JOINT Chest
      {
        OFFSET 0 0 13.052753
        CHANNELS 3 Zrotation Yrotation Xrotation
        JOINT LeftShoulder
        {
          OFFSET 7.640449 1.432584 9.550562
          CHANNELS 3 Zrotation Yrotation Xrotation
          JOINT LeftArm
          {
            OFFSET 9.264045 0 4.297753
            CHANNELS 3 Zrotation Yrotation Xrotation
            JOINT LeftForearm
            {
              OFFSET 0 0 26.078764
              CHANNELS 3 Zrotation Yrotation Xrotation
              JOINT LeftHand
              {
                OFFSET 0 0 25.497135
                CHANNELS 3 Zrotation Yrotation Xrotation
              }
            }
          }
        }
        JOINT RightShoulder
        {
          OFFSET -7.640449 1.432584 9.550562
          CHANNELS 3 Zrotation Yrotation Xrotation
          JOINT RightArm
          {
            OFFSET -9.264045 0 4.297753
            CHANNELS 3 Zrotation Yrotation Xrotation
            JOINT RightForearm
            {
              OFFSET 0 0 -26.078764
              CHANNELS 3 Zrotation Yrotation Xrotation
              JOINT RightHand
              {
                OFFSET 0 0 -25.497135
                CHANNELS 3 Zrotation Yrotation Xrotation
              }
            }
          }
        }
        JOINT Neck
        {
          OFFSET 0 0 15.280899
          CHANNELS 3 Zrotation Yrotation Xrotation
          JOINT Head
          {
            OFFSET 0 0 11.460674
            CHANNELS 3 Zrotation Yrotation Xrotation
            End Site
            {
              OFFSET 0 0 7.325843
            }
          }
        }
      }
    }
  }
}
MOTION
Frames: 11
Frame Time: 0.01
212.228092735859  63.852524  37.7257230575841  162.206675  -77.588097  100.390082  41.19458  -35.033046  -46.820802  -6.703549  31.971843  40.250401  24.375013  17.815578  16.928982  -46.785869  39.847843  -30.913374  -2.703439  6.072146  71.326453  12.888386  -18.508485  -9.315932  3.554073  -0.940764  0.697496  9.691462  -2.667259  1.764581  9.691462  -2.667259  1.764581  -5.047739  13.010403  7.091043  173.823143  62.978139  -121.058573  -40.141334  -3.394763  42.28983  78.404453  18.014823  -46.727969  29.288062  -2.309516  12.483291  170.061306  83.82843  99.960659  -56.750692  12.767186  -38.161958  85.285917  -7.099398  25.74497  -1.372914  6.763859  2.262682  -1.053649  5.067932  1.710302  
212.205469836177  63.803814  37.8002448274271  162.322358  -77.827609  100.375026  40.761284  -35.425243  -46.881999  -6.052983  32.151403  40.423329  24.290519  17.743365  16.915428  -47.56392  39.69442  -31.461534  -2.383892  6.312185  71.656954  13.622228  -18.581021  -9.480408  3.551426  -0.939583  0.693667  9.684403  -2.663412  1.754415  9.684403  -2.663412  1.754416  -5.080958  12.970141  7.049992  174.112194  63.199007  -120.62932  -39.307911  -3.816848  41.945754  78.752545  17.984991  -47.097219  29.233644  -2.255802  12.493463  172.809423  84.137322  103.034033  -55.526789  13.039872  -37.592303  85.709158  -7.837298  26.09011  -1.568459  6.747366  2.126153  -1.198568  5.055189  1.610166  
212.218178258199  63.786385  37.8861925288728  162.700188  -78.08244  100.129423  40.493972  -35.688406  -47.083613  -5.448514  32.257194  40.700465  23.905505  17.672012  16.801069  -48.194836  39.481133  -31.886947  -2.09065  6.352273  71.937263  14.129517  -18.652575  -9.611403  3.553699  -0.943052  0.686606  9.690844  -2.671897  1.734555  9.690845  -2.671897  1.734555  -5.00397  12.920387  7.008451  174.310609  63.450218  -120.266609  -38.567909  -4.06165  41.681304  78.990132  17.971767  -47.495701  29.207651  -2.228309  12.469655  176.180986  84.433093  106.703188  -54.141033  13.397475  -36.889577  86.100848  -8.472098  26.363411  -1.6832  6.708039  1.994635  -1.282952  5.025653  1.512825  
212.173109354274  63.733109  37.9770337649408  162.93307  -78.256353  99.980275  40.444462  -35.84882  -47.313635  -5.115084  32.412304  40.887575  23.759894  17.627765  16.785423  -48.771297  39.335797  -32.212233  -1.735151  6.117377  72.012235  14.388411  -18.751096  -9.728319  3.561648  -0.947091  0.693121  9.712239  -2.684059  1.751412  9.712238  -2.684059  1.751412  -5.035486  12.880151  6.912608  174.436571  63.668812  -120.005308  -38.058628  -4.323437  41.420261  79.179938  17.966115  -47.837834  29.15248  -2.147035  12.436589  179.221868  84.576102  109.945474  -52.865816  13.748713  -36.157508  86.460517  -9.083845  26.612197  -1.87085  6.700037  1.825041  -1.421638  5.019559  1.387825  
212.223069667732  63.69598  38.0914180947107  163.183458  -78.411993  99.828219  40.531304  -35.90108  -47.612063  -4.786588  32.545854  41.164701  23.369574  17.552134  16.681522  -49.144782  39.099156  -32.454095  -1.399995  5.822111  72.021163  14.400806  -18.885834  -9.765092  3.571602  -0.946888  0.700885  9.739141  -2.684892  1.772207  9.739141  -2.684892  1.772207  -4.983609  12.817675  6.806195  174.51167  63.900221  -119.793899  -37.628852  -4.51815  41.209277  79.571135  17.836221  -48.22548  29.18773  -2.096837  12.390579  -177.773939  84.534443  113.175747  -51.769967  14.054152  -35.375836  86.830546  -9.74768  26.881908  -1.956531  6.675518  1.654747  -1.483894  5.001453  1.261125  
212.161220880074  63.625412  38.164990893393  163.278369  -78.552141  99.789811  40.752614  -35.954703  -47.907091  -4.642369  32.791771  41.302914  23.207561  17.500694  16.653348  -49.676544  38.948086  -32.638527  -1.005767  5.355553  71.847924  14.325572  -18.972234  -9.787603  3.577069  -0.943298  0.717878  9.753457  -2.67774  1.818861  9.753458  -2.67774  1.818861  -4.987032  12.764486  6.669537  174.513295  64.137311  -119.652858  -37.238834  -4.857656  40.954544  79.833178  17.874948  -48.476859  29.196763  -1.997556  12.334828  -175.707013  84.358692  115.448921  -50.914303  14.265961  -34.663667  87.185178  -10.401584  27.19477  -2.106535  6.660789  1.46792  -1.59419  4.990644  1.122763  
212.141459365067  63.577744  38.2146686638102  163.464871  -78.684602  99.67962  41.068986  -35.927462  -48.2635  -4.437961  32.982832  41.555916  22.824953  17.445923  16.541822  -50.150877  38.704874  -32.778731  -0.610499  4.927748  71.646634  14.199554  -19.042433  -9.796943  3.582855  -0.93199  0.73734  9.768708  -2.649927  1.873365  9.768708  -2.649927  1.873366  -4.936726  12.677325  6.490579  174.539425  64.40014  -119.502763  -36.797896  -5.190901  40.707709  80.103279  17.903367  -48.677199  29.278704  -1.919351  12.222453  -174.230095  84.128587  117.088287  -50.264233  14.475323  -33.965854  87.498113  -11.053876  27.573533  -2.142125  6.611593  1.265472  -1.618558  4.954363  0.971327  
212.094475233053  63.527653  38.216297748019  163.482684  -78.760376  99.706203  41.504654  -35.807445  -48.586849  -4.452297  33.200345  41.709225  22.568385  17.360089  16.479868  -50.60325  38.552053  -32.935052  -0.272146  4.560287  71.506242  14.16752  -19.062866  -9.851726  3.595643  -0.917978  0.754917  9.803257  -2.614668  1.922843  9.803257  -2.614667  1.922842  -4.928509  12.625202  6.348226  174.553874  64.654564  -119.346683  -36.326655  -5.57887  40.427151  80.342542  17.927421  -48.912579  29.296973  -1.824618  12.150228  -173.107423  83.953486  118.433257  -49.822966  14.494621  -33.437797  87.728815  -11.670954  27.981654  -2.278418  6.559234  1.086757  -1.718657  4.91548  0.838738  
212.103488539228  63.527653  38.1952465400651  163.605605  -78.842322  99.675759  41.896676  -35.544636  -48.968816  -4.24028  33.238779  42.111933  21.9121  17.186068  16.302771  -50.93036  38.341938  -33.083463  -0.0526  4.400678  71.481501  14.280206  -19.063995  -9.944346  3.618119  -0.89746  0.758285  9.865025  -2.559849  1.934145  9.865025  -2.559849  1.934145  -4.889628  12.55682  6.252934  174.57291  64.903156  -119.122688  -35.796458  -5.913493  40.159667  80.544645  18.049323  -49.930492  29.331275  -1.800174  12.0902  -171.903913  83.838735  119.851174  -49.447052  14.524014  -32.866582  87.941504  -12.213747  28.324079  -2.370878  6.462618  0.93564  -1.786204  4.843439  0.726163  
212.056770033099  63.528492  38.1496878642822  163.543854  -78.905881  99.775509  42.324481  -35.22197  -49.258279  -4.436182  33.360715  42.251824  21.643459  17.059114  16.248547  -51.212538  38.282584  -33.193481  0.064766  4.385176  71.502772  14.519783  -19.0402  -10.026933  3.633829  -0.884305  0.765183  9.908001  -2.525452  1.954284  9.908001  -2.525452  1.954284  -4.875426  12.559772  6.198092  174.791319  65.035995  -118.79156  -35.151929  -6.233177  39.926335  80.837858  18.045184  -50.282211  29.314143  -1.734446  12.079081  -171.46089  83.669179  120.437504  -49.103128  14.553016  -32.294089  88.244371  -12.749994  28.610926  -2.513626  6.396907  0.821324  -1.891888  4.794413  0.641772  
212.20866114439  63.530956  38.1636142209598  163.651624  -78.978127  99.755604  42.619586  -34.849235  -49.622596  -4.521275  33.377375  42.529553  21.252189  16.944589  16.166048  -51.089432  38.167635  -33.311696  -0.073886  4.674078  71.808288  14.688951  -19.012204  -10.009026  3.657685  -0.869587  0.765464  9.973548  -2.486044  1.956311  9.973548  -2.486043  1.956311  -4.826597  12.545815  6.145472  174.99096  65.152604  -118.42019  -34.406554  -6.564357  39.710773  81.157905  18.044345  -50.60484  29.271767  -1.706256  12.032666  -171.24579  83.421333  120.729973  -48.590082  14.697664  -31.601896  88.650162  -13.308475  28.845828  -2.660237  6.297749  0.708651  -2.000495  4.720345  0.558476  
